<?xml version="1.0" encoding="UTF-8"?>
<!DOCTYPE svg PUBLIC "-//W3C//DTD SVG 1.1//EN" "http://www.w3.org/Graphics/SVG/1.1/DTD/svg11.dtd">
<svg xmlns="http://www.w3.org/2000/svg" version="1.1" width="900px" height="900px" style="shape-rendering:geometricPrecision; text-rendering:geometricPrecision; image-rendering:optimizeQuality; fill-rule:evenodd; clip-rule:evenodd" xmlns:xlink="http://www.w3.org/1999/xlink">
<g><path style="opacity:1" fill="#fefefe" d="M -0.5,-0.5 C 299.5,-0.5 599.5,-0.5 899.5,-0.5C 899.5,299.5 899.5,599.5 899.5,899.5C 599.5,899.5 299.5,899.5 -0.5,899.5C -0.5,599.5 -0.5,299.5 -0.5,-0.5 Z"/></g>
<g><path style="opacity:1" fill="#9dcfec" d="M 625.5,170.5 C 625.832,233.002 625.499,295.336 624.5,357.5C 624.5,295.167 624.5,232.833 624.5,170.5C 563.499,170.333 502.499,170.5 441.5,171C 437.49,171.501 433.49,172.001 429.5,172.5C 429.918,171.778 430.584,171.278 431.5,171C 434.5,170.667 437.5,170.333 440.5,170C 502.335,169.168 564.001,169.335 625.5,170.5 Z"/></g>
<g><path style="opacity:1" fill="#027dc6" d="M 624.5,357.5 C 623.597,360.391 623.264,363.391 623.5,366.5C 614.605,394.122 595.939,410.955 567.5,417C 545.503,417.5 523.503,417.667 501.5,417.5C 501.5,376.167 501.5,334.833 501.5,293.5C 460.337,292.501 419.003,292.168 377.5,292.5C 378.446,270.189 378.779,247.856 378.5,225.5C 378.5,225.167 378.5,224.833 378.5,224.5C 379.924,222.485 380.59,220.152 380.5,217.5C 388.271,196.442 402.604,181.776 423.5,173.5C 425.453,172.844 427.453,172.511 429.5,172.5C 433.49,172.001 437.49,171.501 441.5,171C 502.499,170.5 563.499,170.333 624.5,170.5C 624.5,232.833 624.5,295.167 624.5,357.5 Z"/></g>
<g><path style="opacity:1" fill="#ebfdfe" d="M 625.5,170.5 C 626.665,233.999 626.832,297.665 626,361.5C 625.901,363.653 625.067,365.319 623.5,366.5C 623.264,363.391 623.597,360.391 624.5,357.5C 625.499,295.336 625.832,233.002 625.5,170.5 Z"/></g>
<g><path style="opacity:1" fill="#6eb1db" d="M 380.5,217.5 C 380.59,220.152 379.924,222.485 378.5,224.5C 378.41,221.848 379.076,219.515 380.5,217.5 Z"/></g>
<g><path style="opacity:1" fill="#3288bc" d="M 378.5,225.5 C 378.779,247.856 378.446,270.189 377.5,292.5C 419.003,292.168 460.337,292.501 501.5,293.5C 460.167,293.5 418.833,293.5 377.5,293.5C 377.167,293.5 376.833,293.5 376.5,293.5C 376.5,293.167 376.5,292.833 376.5,292.5C 376.333,272.164 376.5,251.831 377,231.5C 377.191,229.292 377.691,227.292 378.5,225.5 Z"/></g>
<g><path style="opacity:1" fill="#ecf6d3" d="M 376.5,292.5 C 376.5,292.833 376.5,293.167 376.5,293.5C 355.164,293.333 333.831,293.5 312.5,294C 310.26,294.977 307.927,295.477 305.5,295.5C 307.277,294.4 309.277,293.566 311.5,293C 333.164,292.5 354.831,292.333 376.5,292.5 Z"/></g>
<g><path style="opacity:1" fill="#c5dd81" d="M 376.5,293.5 C 376.5,293.833 376.5,294.167 376.5,294.5C 355.497,294.333 334.497,294.5 313.5,295C 310.312,296.316 306.978,296.816 303.5,296.5C 303.842,295.662 304.508,295.328 305.5,295.5C 307.927,295.477 310.26,294.977 312.5,294C 333.831,293.5 355.164,293.333 376.5,293.5 Z"/></g>
<g><path style="opacity:1" fill="#00663b" d="M 500.5,298.5 C 500.5,337.833 500.5,377.167 500.5,416.5C 499.833,416.5 499.167,416.5 498.5,416.5C 459.337,415.501 420.004,415.168 380.5,415.5C 380.5,375.5 380.5,335.5 380.5,295.5C 420.167,295.5 459.833,295.5 499.5,295.5C 499.263,296.791 499.596,297.791 500.5,298.5 Z"/></g>
<g><path style="opacity:1" fill="#006c69" d="M 377.5,294.5 C 377.5,294.167 377.5,293.833 377.5,293.5C 418.833,293.5 460.167,293.5 501.5,293.5C 501.5,334.833 501.5,376.167 501.5,417.5C 501.167,417.5 500.833,417.5 500.5,417.5C 500.5,417.167 500.5,416.833 500.5,416.5C 500.5,377.167 500.5,337.833 500.5,298.5C 500.5,297.167 500.5,295.833 500.5,294.5C 459.833,294.5 419.167,294.5 378.5,294.5C 378.167,294.5 377.833,294.5 377.5,294.5 Z"/></g>
<g><path style="opacity:1" fill="#a5cd39" d="M 376.5,294.5 C 376.5,335.833 376.5,377.167 376.5,418.5C 417.833,418.5 459.167,418.5 500.5,418.5C 500.782,442.189 500.449,465.855 499.5,489.5C 497.364,493.576 496.03,497.91 495.5,502.5C 493.631,504.034 492.298,506.034 491.5,508.5C 491.573,510.027 490.906,511.027 489.5,511.5C 487.674,513.147 486.34,515.147 485.5,517.5C 482.5,519.833 479.833,522.5 477.5,525.5C 476.222,525.782 475.222,526.449 474.5,527.5C 471.296,528.383 468.629,530.05 466.5,532.5C 464.326,532.75 462.659,533.75 461.5,535.5C 456.917,536.954 452.25,538.287 447.5,539.5C 383.183,540.479 318.849,540.812 254.5,540.5C 253.335,479.668 253.168,418.668 254,357.5C 254.32,353.786 254.82,350.119 255.5,346.5C 255.5,345.167 255.5,343.833 255.5,342.5C 256.497,342.53 257.164,342.03 257.5,341C 258.998,337.183 260.331,333.349 261.5,329.5C 263.369,327.966 264.702,325.966 265.5,323.5C 267.5,320.833 269.5,318.167 271.5,315.5C 273.749,314.92 275.415,313.587 276.5,311.5C 276.5,310.833 276.833,310.5 277.5,310.5C 280.942,308.756 284.442,308.089 288,308.5C 290.931,307.431 292.098,305.598 291.5,303C 294.768,300.06 298.268,299.893 302,302.5C 302.5,302.167 303,301.833 303.5,301.5C 302.167,300.833 300.833,300.167 299.5,299.5C 301.184,298.85 302.517,297.85 303.5,296.5C 306.978,296.816 310.312,296.316 313.5,295C 334.497,294.5 355.497,294.333 376.5,294.5 Z"/></g>
<g><path style="opacity:1" fill="#006441" d="M 378.5,294.5 C 419.167,294.5 459.833,294.5 500.5,294.5C 500.5,295.833 500.5,297.167 500.5,298.5C 499.596,297.791 499.263,296.791 499.5,295.5C 459.833,295.5 420.167,295.5 380.5,295.5C 380.5,335.5 380.5,375.5 380.5,415.5C 420.004,415.168 459.337,415.501 498.5,416.5C 458.5,416.5 418.5,416.5 378.5,416.5C 378.5,375.833 378.5,335.167 378.5,294.5 Z"/></g>
<g><path style="opacity:1" fill="#aecf52" d="M 303.5,296.5 C 302.517,297.85 301.184,298.85 299.5,299.5C 300.833,300.167 302.167,300.833 303.5,301.5C 303,301.833 302.5,302.167 302,302.5C 298.268,299.893 294.768,300.06 291.5,303C 292.098,305.598 290.931,307.431 288,308.5C 284.442,308.089 280.942,308.756 277.5,310.5C 284.618,303.269 293.284,298.603 303.5,296.5 Z"/></g>
<g><path style="opacity:1" fill="#c5dd84" d="M 276.5,311.5 C 275.415,313.587 273.749,314.92 271.5,315.5C 272.585,313.413 274.251,312.08 276.5,311.5 Z"/></g>
<g><path style="opacity:1" fill="#c8dd84" d="M 265.5,323.5 C 264.702,325.966 263.369,327.966 261.5,329.5C 261.845,326.802 263.178,324.802 265.5,323.5 Z"/></g>
<g><path style="opacity:1" fill="#c9df88" d="M 261.5,329.5 C 260.331,333.349 258.998,337.183 257.5,341C 257.164,342.03 256.497,342.53 255.5,342.5C 256.751,337.715 258.751,333.381 261.5,329.5 Z"/></g>
<g><path style="opacity:1" fill="#e0efbe" d="M 255.5,346.5 C 254.82,350.119 254.32,353.786 254,357.5C 253.168,418.668 253.335,479.668 254.5,540.5C 316.998,541.499 379.664,541.832 442.5,541.5C 379.431,542.833 316.264,542.833 253,541.5C 252.333,478.833 252.333,416.167 253,353.5C 253.333,351.5 253.667,349.5 254,347.5C 254.383,346.944 254.883,346.611 255.5,346.5 Z"/></g>
<g><path style="opacity:1" fill="#0d672c" d="M 377.5,294.5 C 377.833,294.5 378.167,294.5 378.5,294.5C 378.5,335.167 378.5,375.833 378.5,416.5C 418.5,416.5 458.5,416.5 498.5,416.5C 499.167,416.5 499.833,416.5 500.5,416.5C 500.5,416.833 500.5,417.167 500.5,417.5C 459.5,417.5 418.5,417.5 377.5,417.5C 377.5,376.5 377.5,335.5 377.5,294.5 Z"/></g>
<g><path style="opacity:1" fill="#549933" d="M 376.5,293.5 C 376.833,293.5 377.167,293.5 377.5,293.5C 377.5,293.833 377.5,294.167 377.5,294.5C 377.5,335.5 377.5,376.5 377.5,417.5C 418.5,417.5 459.5,417.5 500.5,417.5C 500.5,417.833 500.5,418.167 500.5,418.5C 459.167,418.5 417.833,418.5 376.5,418.5C 376.5,377.167 376.5,335.833 376.5,294.5C 376.5,294.167 376.5,293.833 376.5,293.5 Z"/></g>
<g><path style="opacity:1" fill="#c6df81" d="M 500.5,417.5 C 500.833,417.5 501.167,417.5 501.5,417.5C 501.667,440.169 501.5,462.836 501,485.5C 500.79,487.058 500.29,488.391 499.5,489.5C 500.449,465.855 500.782,442.189 500.5,418.5C 500.5,418.167 500.5,417.833 500.5,417.5 Z"/></g>
<g><path style="opacity:1" fill="#e4f2bf" d="M 495.5,502.5 C 495.071,505.147 493.738,507.147 491.5,508.5C 492.298,506.034 493.631,504.034 495.5,502.5 Z"/></g>
<g><path style="opacity:1" fill="#e4f2bd" d="M 489.5,511.5 C 489.155,514.198 487.822,516.198 485.5,517.5C 486.34,515.147 487.674,513.147 489.5,511.5 Z"/></g>
<g><path style="opacity:1" fill="#eef9da" d="M 485.5,517.5 C 484.011,519.645 483.011,521.978 482.5,524.5C 480.708,524.366 479.042,524.699 477.5,525.5C 479.833,522.5 482.5,519.833 485.5,517.5 Z"/></g>
<g><path style="opacity:1" fill="#d6e8a9" d="M 474.5,527.5 C 472.371,529.95 469.704,531.617 466.5,532.5C 468.629,530.05 471.296,528.383 474.5,527.5 Z"/></g>
<g><path style="opacity:1" fill="#e3f1bc" d="M 466.5,532.5 C 465.514,534.408 463.848,535.408 461.5,535.5C 462.659,533.75 464.326,532.75 466.5,532.5 Z"/></g>
<g><path style="opacity:1" fill="#cbe383" d="M 447.5,539.5 C 445.833,540.167 444.167,540.833 442.5,541.5C 379.664,541.832 316.998,541.499 254.5,540.5C 318.849,540.812 383.183,540.479 447.5,539.5 Z"/></g>
<g><path style="opacity:1" fill="#9b9b9c" d="M 633.5,629.5 C 633.5,625.5 633.5,621.5 633.5,617.5C 628.833,617.5 624.167,617.5 619.5,617.5C 619.5,621.5 619.5,625.5 619.5,629.5C 618.515,625.366 618.182,621.032 618.5,616.5C 623.833,616.5 629.167,616.5 634.5,616.5C 634.818,621.032 634.485,625.366 633.5,629.5 Z"/></g>
<g><path style="opacity:1" fill="#e4e4e5" d="M 716.5,616.5 C 711.305,616.179 706.305,616.513 701.5,617.5C 700.502,643.995 700.169,670.661 700.5,697.5C 699.336,670.67 699.17,643.67 700,616.5C 705.599,615.175 711.099,615.175 716.5,616.5 Z"/></g>
<g><path style="opacity:1" fill="#ddddde" d="M 387.5,616.5 C 388.496,630.323 388.829,644.323 388.5,658.5C 389.5,658.5 390.5,658.5 391.5,658.5C 390.92,660.749 389.587,662.415 387.5,663.5C 387.5,647.833 387.5,632.167 387.5,616.5 Z"/></g>
<g><path style="opacity:1" fill="#b1b1b3" d="M 834.5,616.5 C 839.695,616.179 844.695,616.513 849.5,617.5C 844.5,617.5 839.5,617.5 834.5,617.5C 834.832,626.525 834.498,635.525 833.5,644.5C 832.893,644.376 832.56,644.043 832.5,643.5C 833.167,634.5 833.833,625.5 834.5,616.5 Z"/></g>
<g><path style="opacity:1" fill="#818182" d="M 380.5,617.5 C 382.607,616.532 384.941,616.198 387.5,616.5C 387.5,632.167 387.5,647.833 387.5,663.5C 387.167,663.5 386.833,663.5 386.5,663.5C 386.5,648.167 386.5,632.833 386.5,617.5C 384.5,617.5 382.5,617.5 380.5,617.5 Z"/></g>
<g><path style="opacity:1" fill="#838384" d="M 701.5,617.5 C 706.305,616.513 711.305,616.179 716.5,616.5C 715.861,626.227 716.528,635.56 718.5,644.5C 717.791,645.404 716.791,645.737 715.5,645.5C 715.5,636.167 715.5,626.833 715.5,617.5C 710.833,617.5 706.167,617.5 701.5,617.5 Z"/></g>
<g><path style="opacity:1" fill="#d6d6d6" d="M 590.5,616.5 C 590.5,626.167 590.5,635.833 590.5,645.5C 589.167,644.833 588.167,643.833 587.5,642.5C 589.155,634.048 590.155,625.381 590.5,616.5 Z"/></g>
<g><path style="opacity:1" fill="#58585a" d="M 647.5,617.5 C 652.167,617.5 656.833,617.5 661.5,617.5C 661.333,633.17 661.5,648.837 662,664.5C 662.995,663.934 663.828,663.267 664.5,662.5C 664.5,661.833 664.5,661.167 664.5,660.5C 667.972,654.119 671.639,647.786 675.5,641.5C 680.833,640.167 686.167,640.167 691.5,641.5C 686.817,649.538 682.151,657.538 677.5,665.5C 682.545,675.922 687.879,686.256 693.5,696.5C 687.863,697.663 682.196,697.83 676.5,697C 672.266,688.268 668.266,679.435 664.5,670.5C 664.585,669.005 663.919,668.005 662.5,667.5C 661.502,677.144 661.168,686.81 661.5,696.5C 656.833,696.5 652.167,696.5 647.5,696.5C 647.5,670.167 647.5,643.833 647.5,617.5 Z"/></g>
<g><path style="opacity:1" fill="#4d4d4e" d="M 380.5,617.5 C 382.5,617.5 384.5,617.5 386.5,617.5C 386.5,632.833 386.5,648.167 386.5,663.5C 385.818,649.564 385.151,634.898 384.5,619.5C 383.914,619.291 383.414,618.957 383,618.5C 382.5,644.165 382.333,669.831 382.5,695.5C 383.5,695.5 384.5,695.5 385.5,695.5C 385.168,685.748 385.501,676.748 386.5,668.5C 386.5,677.833 386.5,687.167 386.5,696.5C 384.5,696.5 382.5,696.5 380.5,696.5C 380.5,670.167 380.5,643.833 380.5,617.5 Z"/></g>
<g><path style="opacity:1" fill="#575759" d="M 633.5,629.5 C 628.833,629.5 624.167,629.5 619.5,629.5C 619.5,625.5 619.5,621.5 619.5,617.5C 624.167,617.5 628.833,617.5 633.5,617.5C 633.5,621.5 633.5,625.5 633.5,629.5 Z"/></g>
<g><path style="opacity:1" fill="#828284" d="M 647.5,617.5 C 652.305,616.513 657.305,616.179 662.5,616.5C 661.849,632.203 662.516,647.536 664.5,662.5C 663.828,663.267 662.995,663.934 662,664.5C 661.5,648.837 661.333,633.17 661.5,617.5C 656.833,617.5 652.167,617.5 647.5,617.5 Z"/></g>
<g><path style="opacity:1" fill="#5c5c5e" d="M 701.5,617.5 C 706.167,617.5 710.833,617.5 715.5,617.5C 715.5,626.833 715.5,636.167 715.5,645.5C 716.791,645.737 717.791,645.404 718.5,644.5C 718.5,644.167 718.5,643.833 718.5,643.5C 723.942,639.071 729.942,638.404 736.5,641.5C 740.455,645.289 742.622,649.956 743,655.5C 743.667,665.5 743.667,675.5 743,685.5C 740.234,696.257 733.4,700.423 722.5,698C 720.04,696.542 717.873,694.709 716,692.5C 715.506,694.134 715.34,695.801 715.5,697.5C 710.5,697.5 705.5,697.5 700.5,697.5C 700.169,670.661 700.502,643.995 701.5,617.5 Z"/></g>
<g><path style="opacity:1" fill="#7d7d7e" d="M 590.5,616.5 C 595.695,616.179 600.695,616.513 605.5,617.5C 600.833,617.5 596.167,617.5 591.5,617.5C 591.827,627.015 591.494,636.348 590.5,645.5C 590.5,635.833 590.5,626.167 590.5,616.5 Z"/></g>
<g><path style="opacity:1" fill="#dfdfdf" d="M 662.5,616.5 C 663.167,631.167 663.833,645.833 664.5,660.5C 664.5,661.167 664.5,661.833 664.5,662.5C 662.516,647.536 661.849,632.203 662.5,616.5 Z"/></g>
<g><path style="opacity:1" fill="#ddddde" d="M 716.5,616.5 C 717.167,625.5 717.833,634.5 718.5,643.5C 718.5,643.833 718.5,644.167 718.5,644.5C 716.528,635.56 715.861,626.227 716.5,616.5 Z"/></g>
<g><path style="opacity:1" fill="#dddddd" d="M 834.5,616.5 C 839.64,615.512 844.974,615.179 850.5,615.5C 850.831,643.005 850.498,670.338 849.5,697.5C 849.5,670.833 849.5,644.167 849.5,617.5C 844.695,616.513 839.695,616.179 834.5,616.5 Z"/></g>
<g><path style="opacity:1" fill="#7d7d7e" d="M 105.5,641.5 C 98.6491,641.009 91.9824,641.676 85.5,643.5C 85.8807,642.069 86.8807,641.236 88.5,641C 91.6262,640.241 94.7928,639.741 98,639.5C 100.821,639.408 103.321,640.074 105.5,641.5 Z"/></g>
<g><path style="opacity:1" fill="#7c7c7c" d="M 142.5,647.5 C 142.611,646.883 142.944,646.383 143.5,646C 145.473,645.505 147.473,645.338 149.5,645.5C 149.5,644.167 149.5,642.833 149.5,641.5C 146.921,641.083 144.754,641.75 143,643.5C 142.329,642.748 141.496,642.414 140.5,642.5C 143.288,640.024 146.622,639.024 150.5,639.5C 150.5,641.833 150.5,644.167 150.5,646.5C 147.763,646.401 145.096,646.735 142.5,647.5 Z"/></g>
<g><path style="opacity:1" fill="#b0b0b1" d="M 305.5,628.5 C 305.5,632.833 305.5,637.167 305.5,641.5C 302.5,641.5 299.5,641.5 296.5,641.5C 298.948,640.527 301.615,640.194 304.5,640.5C 304.183,636.298 304.517,632.298 305.5,628.5 Z"/></g>
<g><path style="opacity:1" fill="#bfbfc0" d="M 310.5,626.5 C 310.56,625.957 310.893,625.624 311.5,625.5C 312.494,630.456 312.827,635.456 312.5,640.5C 316.371,640.185 320.038,640.518 323.5,641.5C 319.5,641.5 315.5,641.5 311.5,641.5C 311.821,636.305 311.487,631.305 310.5,626.5 Z"/></g>
<g><path style="opacity:1" fill="#bdbdbd" d="M 406.5,641.5 C 408.948,640.527 411.615,640.194 414.5,640.5C 414.737,641.791 414.404,642.791 413.5,643.5C 411.721,641.656 409.388,640.99 406.5,641.5 Z"/></g>
<g><path style="opacity:1" fill="#59595a" d="M 754.5,641.5 C 759.5,641.5 764.5,641.5 769.5,641.5C 769.171,656.01 769.504,670.343 770.5,684.5C 772.316,688.775 775.316,689.608 779.5,687C 780.252,686.329 780.586,685.496 780.5,684.5C 781.496,670.343 781.829,656.01 781.5,641.5C 786.167,641.5 790.833,641.5 795.5,641.5C 795.17,658.342 795.503,675.008 796.5,691.5C 796.5,693.167 796.5,694.833 796.5,696.5C 791.5,696.5 786.5,696.5 781.5,696.5C 781.762,695.022 781.429,693.689 780.5,692.5C 779.478,692.855 778.811,693.522 778.5,694.5C 777.264,696.828 775.264,697.994 772.5,698C 764.565,700.28 758.731,697.78 755,690.5C 754.5,674.17 754.333,657.837 754.5,641.5 Z"/></g>
<g><path style="opacity:1" fill="#a3a3a3" d="M 754.5,641.5 C 759.64,640.512 764.974,640.179 770.5,640.5C 770.5,655.167 770.5,669.833 770.5,684.5C 769.504,670.343 769.171,656.01 769.5,641.5C 764.5,641.5 759.5,641.5 754.5,641.5 Z"/></g>
<g><path style="opacity:1" fill="#9d9d9f" d="M 134.5,640.5 C 135.167,642.5 135.833,644.5 136.5,646.5C 136.44,647.043 136.107,647.376 135.5,647.5C 134.526,645.257 134.192,642.924 134.5,640.5 Z"/></g>
<g><path style="opacity:1" fill="#575759" d="M 214.5,642.5 C 214.5,656.5 214.5,670.5 214.5,684.5C 213.781,686.091 212.781,687.591 211.5,689C 211.833,689.333 212.167,689.667 212.5,690C 211.552,690.483 210.552,690.649 209.5,690.5C 209.5,674.5 209.5,658.5 209.5,642.5C 211.167,642.5 212.833,642.5 214.5,642.5 Z"/></g>
<g><path style="opacity:1" fill="#58585a" d="M 605.5,617.5 C 605.5,643.833 605.5,670.167 605.5,696.5C 600.833,696.5 596.167,696.5 591.5,696.5C 591.762,695.022 591.429,693.689 590.5,692.5C 589.893,692.624 589.56,692.957 589.5,693.5C 587.961,695.529 585.961,697.029 583.5,698C 572.556,700.718 566.056,696.551 564,685.5C 563.333,674.167 563.333,662.833 564,651.5C 568.323,639.424 576.157,636.424 587.5,642.5C 588.167,643.833 589.167,644.833 590.5,645.5C 591.494,636.348 591.827,627.015 591.5,617.5C 596.167,617.5 600.833,617.5 605.5,617.5 Z"/></g>
<g><path style="opacity:1" fill="#fcfcfc" d="M 187.5,651.5 C 188.833,662.833 188.833,674.167 187.5,685.5C 184.581,691.952 179.581,694.118 172.5,692C 170.174,690.195 168.508,688.028 167.5,685.5C 167.5,684.833 167.5,684.167 167.5,683.5C 166.198,673.504 166.198,663.504 167.5,653.5C 171.263,646.635 176.93,644.801 184.5,648C 185.71,649.039 186.71,650.206 187.5,651.5 Z"/></g>
<g><path style="opacity:1" fill="#9c9c9c" d="M 28.5,643.5 C 29.4977,668.328 29.831,693.328 29.5,718.5C 31.5,718.5 33.5,718.5 35.5,718.5C 33.3926,719.468 31.0593,719.802 28.5,719.5C 28.5,694.167 28.5,668.833 28.5,643.5 Z"/></g>
<g><path style="opacity:1" fill="#d3d3d3" d="M 164.5,641.5 C 162.5,641.5 160.5,641.5 158.5,641.5C 158.5,667.167 158.5,692.833 158.5,718.5C 157.502,692.672 157.169,666.672 157.5,640.5C 160.059,640.198 162.393,640.532 164.5,641.5 Z"/></g>
<g><path style="opacity:1" fill="#7c7c7d" d="M 164.5,641.5 C 164.989,642.995 165.655,644.329 166.5,645.5C 166.027,646.906 165.027,647.573 163.5,647.5C 163.5,645.833 163.5,644.167 163.5,642.5C 162.167,642.5 160.833,642.5 159.5,642.5C 159.5,667.5 159.5,692.5 159.5,717.5C 161.167,717.5 162.833,717.5 164.5,717.5C 164.5,709.167 164.5,700.833 164.5,692.5C 165.791,692.263 166.791,692.596 167.5,693.5C 165.53,701.769 164.864,710.435 165.5,719.5C 162.941,719.802 160.607,719.468 158.5,718.5C 158.5,692.833 158.5,667.167 158.5,641.5C 160.5,641.5 162.5,641.5 164.5,641.5 Z"/></g>
<g><path style="opacity:1" fill="#99999a" d="M 215.5,684.5 C 215.167,684.5 214.833,684.5 214.5,684.5C 214.5,670.5 214.5,656.5 214.5,642.5C 212.735,641.539 210.735,641.205 208.5,641.5C 208.5,656.833 208.5,672.167 208.5,687.5C 207.504,672.009 207.17,656.342 207.5,640.5C 210.167,640.5 212.833,640.5 215.5,640.5C 215.5,655.167 215.5,669.833 215.5,684.5 Z"/></g>
<g><path style="opacity:1" fill="#7a7a7a" d="M 237.5,641.5 C 239.833,641.5 242.167,641.5 244.5,641.5C 244.5,658.5 244.5,675.5 244.5,692.5C 243.503,676.008 243.17,659.342 243.5,642.5C 241.833,642.5 240.167,642.5 238.5,642.5C 238.828,654.012 238.495,665.346 237.5,676.5C 237.5,664.833 237.5,653.167 237.5,641.5 Z"/></g>
<g><path style="opacity:1" fill="#585859" d="M 244.5,692.5 C 244.5,693.833 244.5,695.167 244.5,696.5C 242.5,696.5 240.5,696.5 238.5,696.5C 238.785,694.712 238.452,693.045 237.5,691.5C 236.105,692.815 235.105,692.481 234.5,690.5C 234.864,688.267 235.864,686.434 237.5,685C 236.748,684.329 236.414,683.496 236.5,682.5C 236.205,680.265 236.539,678.265 237.5,676.5C 238.495,665.346 238.828,654.012 238.5,642.5C 240.167,642.5 241.833,642.5 243.5,642.5C 243.17,659.342 243.503,676.008 244.5,692.5 Z"/></g>
<g><path style="opacity:1" fill="#e7e7e9" d="M 237.5,641.5 C 239.948,640.527 242.615,640.194 245.5,640.5C 245.83,659.674 245.497,678.674 244.5,697.5C 244.5,697.167 244.5,696.833 244.5,696.5C 244.5,695.167 244.5,693.833 244.5,692.5C 244.5,675.5 244.5,658.5 244.5,641.5C 242.167,641.5 239.833,641.5 237.5,641.5 Z"/></g>
<g><path style="opacity:1" fill="#9d9d9f" d="M 296.5,646.5 C 299.5,646.5 302.5,646.5 305.5,646.5C 305.5,660.167 305.5,673.833 305.5,687.5C 304.504,674.344 304.171,661.01 304.5,647.5C 301.615,647.806 298.948,647.473 296.5,646.5 Z"/></g>
<g><path style="opacity:1" fill="#5b5b5d" d="M 310.5,626.5 C 311.487,631.305 311.821,636.305 311.5,641.5C 315.5,641.5 319.5,641.5 323.5,641.5C 323.5,643.167 323.5,644.833 323.5,646.5C 319.5,646.5 315.5,646.5 311.5,646.5C 311.171,660.344 311.504,674.01 312.5,687.5C 312.511,689.017 313.177,690.184 314.5,691C 317.23,691.728 319.897,691.562 322.5,690.5C 323.474,692.743 323.808,695.076 323.5,697.5C 318.435,697.781 313.435,697.448 308.5,696.5C 306.127,693.982 305.127,690.982 305.5,687.5C 305.5,673.833 305.5,660.167 305.5,646.5C 302.5,646.5 299.5,646.5 296.5,646.5C 295.167,644.833 295.167,643.167 296.5,641.5C 299.5,641.5 302.5,641.5 305.5,641.5C 305.5,637.167 305.5,632.833 305.5,628.5C 307.322,628.169 308.989,627.502 310.5,626.5 Z"/></g>
<g><path style="opacity:1" fill="#bebec0" d="M 524.5,645.5 C 524.44,646.043 524.107,646.376 523.5,646.5C 522.548,644.955 522.215,643.288 522.5,641.5C 520.5,641.5 518.5,641.5 516.5,641.5C 516.5,642.833 516.5,644.167 516.5,645.5C 516.5,662.833 516.5,680.167 516.5,697.5C 515.503,678.674 515.17,659.674 515.5,640.5C 518.167,640.5 520.833,640.5 523.5,640.5C 523.216,642.415 523.549,644.081 524.5,645.5 Z"/></g>
<g><path style="opacity:1" fill="#9b9b9c" d="M 633.5,697.5 C 633.5,697.167 633.5,696.833 633.5,696.5C 633.5,678.167 633.5,659.833 633.5,641.5C 629.167,641.5 624.833,641.5 620.5,641.5C 619.503,659.993 619.17,678.659 619.5,697.5C 618.503,678.674 618.17,659.674 618.5,640.5C 623.833,640.5 629.167,640.5 634.5,640.5C 634.83,659.674 634.497,678.674 633.5,697.5 Z"/></g>
<g><path style="opacity:1" fill="#6e6e70" d="M 620.5,641.5 C 620.5,659.833 620.5,678.167 620.5,696.5C 624.833,696.5 629.167,696.5 633.5,696.5C 633.5,696.833 633.5,697.167 633.5,697.5C 628.833,697.5 624.167,697.5 619.5,697.5C 619.17,678.659 619.503,659.993 620.5,641.5 Z"/></g>
<g><path style="opacity:1" fill="#575759" d="M 620.5,641.5 C 624.833,641.5 629.167,641.5 633.5,641.5C 633.5,659.833 633.5,678.167 633.5,696.5C 629.167,696.5 624.833,696.5 620.5,696.5C 620.5,678.167 620.5,659.833 620.5,641.5 Z"/></g>
<g><path style="opacity:1" fill="#8e8e8f" d="M 796.5,691.5 C 795.503,675.008 795.17,658.342 795.5,641.5C 790.833,641.5 786.167,641.5 781.5,641.5C 781.829,656.01 781.496,670.343 780.5,684.5C 780.5,669.833 780.5,655.167 780.5,640.5C 785.833,640.5 791.167,640.5 796.5,640.5C 796.5,657.5 796.5,674.5 796.5,691.5 Z"/></g>
<g><path style="opacity:1" fill="#cfcfd1" d="M 134.5,640.5 C 132.076,640.192 129.743,640.526 127.5,641.5C 127.624,642.107 127.957,642.44 128.5,642.5C 128.5,660.5 128.5,678.5 128.5,696.5C 128.5,696.833 128.5,697.167 128.5,697.5C 127.784,678.314 127.118,658.981 126.5,639.5C 129.385,639.194 132.052,639.527 134.5,640.5 Z"/></g>
<g><path style="opacity:1" fill="#575758" d="M 551.5,649.5 C 551.5,665.167 551.5,680.833 551.5,696.5C 549.833,696.5 548.167,696.5 546.5,696.5C 546.829,682.323 546.496,668.323 545.5,654.5C 545.88,652.302 545.213,650.635 543.5,649.5C 542.694,648.272 541.694,647.272 540.5,646.5C 537.696,645.362 534.696,645.195 531.5,646C 530.944,646.383 530.611,646.883 530.5,647.5C 526.153,650.178 523.819,654.178 523.5,659.5C 522.505,671.655 522.171,683.989 522.5,696.5C 520.833,696.5 519.167,696.5 517.5,696.5C 517.83,679.325 517.497,662.325 516.5,645.5C 516.5,644.167 516.5,642.833 516.5,641.5C 518.5,641.5 520.5,641.5 522.5,641.5C 522.215,643.288 522.548,644.955 523.5,646.5C 524.107,646.376 524.44,646.043 524.5,645.5C 531.533,638.805 539.2,637.971 547.5,643C 549.734,644.638 551.067,646.805 551.5,649.5 Z"/></g>
<g><path style="opacity:1" fill="#969698" d="M 540.5,646.5 C 537.098,646.342 533.764,646.676 530.5,647.5C 530.611,646.883 530.944,646.383 531.5,646C 534.696,645.195 537.696,645.362 540.5,646.5 Z"/></g>
<g><path style="opacity:1" fill="#f6f6f7" d="M 586.5,650.5 C 588.173,651.343 589.34,652.676 590,654.5C 590.667,663.167 590.667,671.833 590,680.5C 589.728,683.432 588.562,685.932 586.5,688C 582.202,689.512 579.869,688.012 579.5,683.5C 578.415,674.201 578.248,664.868 579,655.5C 579.664,651.243 582.164,649.576 586.5,650.5 Z"/></g>
<g><path style="opacity:1" fill="#f4f4f4" d="M 719.5,650.5 C 722.97,649.875 725.804,650.875 728,653.5C 728.667,662.833 728.667,672.167 728,681.5C 725.917,689.339 722.417,690.339 717.5,684.5C 716.334,674.183 716.168,663.849 717,653.5C 718.045,652.627 718.878,651.627 719.5,650.5 Z"/></g>
<g><path style="opacity:1" fill="#868686" d="M 469.5,646.5 C 469.167,649.167 468.833,651.833 468.5,654.5C 470.5,654.5 472.5,654.5 474.5,654.5C 472.393,655.468 470.059,655.802 467.5,655.5C 467.068,652.123 467.735,649.123 469.5,646.5 Z"/></g>
<g><path style="opacity:1" fill="#a5a5a5" d="M 280.5,649.5 C 282.28,650.99 282.946,652.99 282.5,655.5C 284.5,655.5 286.5,655.5 288.5,655.5C 286.393,656.468 284.059,656.802 281.5,656.5C 281.552,654.097 281.219,651.764 280.5,649.5 Z"/></g>
<g><path style="opacity:1" fill="#9e9e9e" d="M 333.5,646.5 C 332.735,649.096 332.401,651.763 332.5,654.5C 334.5,654.5 336.5,654.5 338.5,654.5C 336.052,655.473 333.385,655.806 330.5,655.5C 330.933,652.834 331.433,650.168 332,647.5C 332.383,646.944 332.883,646.611 333.5,646.5 Z"/></g>
<g><path style="opacity:1" fill="#a2a2a2" d="M 420.5,650.5 C 420.5,651.833 420.5,653.167 420.5,654.5C 422.5,654.5 424.5,654.5 426.5,654.5C 424.393,655.468 422.059,655.802 419.5,655.5C 419.216,653.585 419.549,651.919 420.5,650.5 Z"/></g>
<g><path style="opacity:1" fill="#bebebe" d="M 455.5,651.5 C 456.496,666.991 456.83,682.658 456.5,698.5C 453.941,698.802 451.607,698.468 449.5,697.5C 451.5,697.5 453.5,697.5 455.5,697.5C 455.5,695.5 455.5,693.5 455.5,691.5C 455.5,678.167 455.5,664.833 455.5,651.5 Z"/></g>
<g><path style="opacity:1" fill="#c4c4c4" d="M 543.5,649.5 C 545.213,650.635 545.88,652.302 545.5,654.5C 545.5,668.833 545.5,683.167 545.5,697.5C 544.805,681.628 544.138,665.628 543.5,649.5 Z"/></g>
<g><path style="opacity:1" fill="#bcbcbc" d="M 323.5,646.5 C 320.038,647.482 316.371,647.815 312.5,647.5C 312.5,660.833 312.5,674.167 312.5,687.5C 311.504,674.01 311.171,660.344 311.5,646.5C 315.5,646.5 319.5,646.5 323.5,646.5 Z"/></g>
<g><path style="opacity:1" fill="#737373" d="M 551.5,649.5 C 552.496,665.325 552.83,681.325 552.5,697.5C 550.167,697.5 547.833,697.5 545.5,697.5C 545.5,683.167 545.5,668.833 545.5,654.5C 546.496,668.323 546.829,682.323 546.5,696.5C 548.167,696.5 549.833,696.5 551.5,696.5C 551.5,680.833 551.5,665.167 551.5,649.5 Z"/></g>
<g><path style="opacity:1" fill="#5a5a5c" d="M 134.5,640.5 C 134.192,642.924 134.526,645.257 135.5,647.5C 136.107,647.376 136.44,647.043 136.5,646.5C 137.5,644.833 138.833,643.5 140.5,642.5C 141.496,642.414 142.329,642.748 143,643.5C 144.754,641.75 146.921,641.083 149.5,641.5C 149.5,642.833 149.5,644.167 149.5,645.5C 147.473,645.338 145.473,645.505 143.5,646C 142.944,646.383 142.611,646.883 142.5,647.5C 140.833,648.5 139.5,649.833 138.5,651.5C 136.755,653.033 135.755,655.033 135.5,657.5C 135.167,657.5 134.833,657.5 134.5,657.5C 133.505,669.989 133.171,682.656 133.5,695.5C 132.5,695.5 131.5,695.5 130.5,695.5C 130.5,677.833 130.5,660.167 130.5,642.5C 133.397,641.474 132.73,641.474 128.5,642.5C 127.957,642.44 127.624,642.107 127.5,641.5C 129.743,640.526 132.076,640.192 134.5,640.5 Z"/></g>
<g><path style="opacity:1" fill="#828282" d="M 586.5,650.5 C 582.164,649.576 579.664,651.243 579,655.5C 578.248,664.868 578.415,674.201 579.5,683.5C 578.778,683.082 578.278,682.416 578,681.5C 577.333,672.5 577.333,663.5 578,654.5C 578.273,652.899 578.773,651.399 579.5,650C 582.039,649.204 584.372,649.371 586.5,650.5 Z"/></g>
<g><path style="opacity:1" fill="#5a5a5b" d="M 65.5,650.5 C 66.277,661.148 66.6103,671.815 66.5,682.5C 65.5933,684.657 64.9267,686.99 64.5,689.5C 59.8809,697.799 52.8809,700.633 43.5,698C 41.34,696.668 39.34,695.168 37.5,693.5C 37.44,692.957 37.1067,692.624 36.5,692.5C 35.502,701.141 35.1686,709.808 35.5,718.5C 33.5,718.5 31.5,718.5 29.5,718.5C 29.831,693.328 29.4977,668.328 28.5,643.5C 30.2789,641.656 32.6122,640.99 35.5,641.5C 35.238,642.978 35.5713,644.311 36.5,645.5C 45.2481,637.69 54.0814,637.69 63,645.5C 63.7568,647.315 64.5902,648.981 65.5,650.5 Z"/></g>
<g><path style="opacity:1" fill="#fafafb" d="M 38.5,683.5 C 37.5604,675.221 37.2271,666.888 37.5,658.5C 38.4828,648.69 43.8161,644.857 53.5,647C 56.3624,648.549 58.3624,650.882 59.5,654C 60.7928,663.486 60.7928,672.986 59.5,682.5C 57.7231,690.708 52.7231,693.874 44.5,692C 40.7241,690.395 38.7241,687.562 38.5,683.5 Z"/></g>
<g><path style="opacity:1" fill="#909090" d="M 448.5,662.5 C 441.941,663.376 435.274,664.376 428.5,665.5C 429.681,663.933 431.347,663.099 433.5,663C 438.489,662.501 443.489,662.334 448.5,662.5 Z"/></g>
<g><path style="opacity:1" fill="#959595" d="M 496.5,662.5 C 490.013,663.515 483.346,664.182 476.5,664.5C 482.909,662.734 489.576,662.068 496.5,662.5 Z"/></g>
<g><path style="opacity:1" fill="#7c7c7c" d="M 65.5,650.5 C 66.29,651.609 66.79,652.942 67,654.5C 67.8243,664.009 67.6576,673.343 66.5,682.5C 66.6103,671.815 66.277,661.148 65.5,650.5 Z"/></g>
<g><path style="opacity:1" fill="#cecece" d="M 78.5,653.5 C 77.6287,661.8 77.2953,670.133 77.5,678.5C 76.3448,671.345 76.1782,664.012 77,656.5C 77.2321,655.263 77.7321,654.263 78.5,653.5 Z"/></g>
<g><path style="opacity:1" fill="#4d4d4f" d="M 134.5,657.5 C 134.5,670.5 134.5,683.5 134.5,696.5C 132.5,696.5 130.5,696.5 128.5,696.5C 128.5,678.5 128.5,660.5 128.5,642.5C 132.73,641.474 133.397,641.474 130.5,642.5C 130.5,660.167 130.5,677.833 130.5,695.5C 131.5,695.5 132.5,695.5 133.5,695.5C 133.171,682.656 133.505,669.989 134.5,657.5 Z"/></g>
<g><path style="opacity:1" fill="#7b7b7b" d="M 134.5,657.5 C 134.833,657.5 135.167,657.5 135.5,657.5C 135.5,670.833 135.5,684.167 135.5,697.5C 133.167,697.5 130.833,697.5 128.5,697.5C 128.5,697.167 128.5,696.833 128.5,696.5C 130.5,696.5 132.5,696.5 134.5,696.5C 134.5,683.5 134.5,670.5 134.5,657.5 Z"/></g>
<g><path style="opacity:1" fill="#dbdbdb" d="M 138.5,651.5 C 137.94,653.801 137.44,656.134 137,658.5C 136.831,671.673 136.331,684.673 135.5,697.5C 135.5,684.167 135.5,670.833 135.5,657.5C 135.755,655.033 136.755,653.033 138.5,651.5 Z"/></g>
<g><path style="opacity:1" fill="#c6c6c8" d="M 167.5,653.5 C 166.198,663.504 166.198,673.504 167.5,683.5C 166.778,683.082 166.278,682.416 166,681.5C 165.333,673.167 165.333,664.833 166,656.5C 166.232,655.263 166.732,654.263 167.5,653.5 Z"/></g>
<g><path style="opacity:1" fill="#5d5d5d" d="M 288.5,655.5 C 286.5,655.5 284.5,655.5 282.5,655.5C 282.946,652.99 282.28,650.99 280.5,649.5C 279.942,648.21 278.942,647.377 277.5,647C 274.167,646.333 270.833,646.333 267.5,647C 262.284,651.474 262.284,656.141 267.5,661C 272.373,663.936 277.373,666.603 282.5,669C 284.734,671.063 286.734,673.229 288.5,675.5C 289.162,679.466 289.495,683.466 289.5,687.5C 286.572,695.558 280.739,699.224 272,698.5C 264.066,699.392 258.9,696.059 256.5,688.5C 256.5,686.167 256.5,683.833 256.5,681.5C 258.5,681.5 260.5,681.5 262.5,681.5C 262.232,683.099 262.566,684.432 263.5,685.5C 264.974,692.579 269.308,695.079 276.5,693C 278.618,691.951 280.284,690.451 281.5,688.5C 283.026,687.508 283.693,686.008 283.5,684C 283.486,682.615 283.152,681.449 282.5,680.5C 282.489,678.983 281.823,677.816 280.5,677C 275.295,673.816 269.961,670.816 264.5,668C 257.446,661.902 255.613,654.402 259,645.5C 264.028,640.048 270.194,638.215 277.5,640C 285.685,641.848 289.352,647.015 288.5,655.5 Z"/></g>
<g><path style="opacity:1" fill="#969696" d="M 359.5,662.5 C 354.331,663.381 348.998,664.048 343.5,664.5C 343.918,663.778 344.584,663.278 345.5,663C 350.155,662.501 354.821,662.334 359.5,662.5 Z"/></g>
<g><path style="opacity:1" fill="#787879" d="M 516.5,645.5 C 517.497,662.325 517.83,679.325 517.5,696.5C 519.167,696.5 520.833,696.5 522.5,696.5C 522.171,683.989 522.505,671.655 523.5,659.5C 523.5,672.167 523.5,684.833 523.5,697.5C 521.167,697.5 518.833,697.5 516.5,697.5C 516.5,680.167 516.5,662.833 516.5,645.5 Z"/></g>
<g><path style="opacity:1" fill="#5c5c5d" d="M 105.5,641.5 C 110.487,643.154 113.821,646.487 115.5,651.5C 116.32,657.797 116.653,664.131 116.5,670.5C 105.833,670.5 95.1667,670.5 84.5,670.5C 84.19,673.713 84.5233,676.713 85.5,679.5C 85.201,687.946 89.201,692.279 97.5,692.5C 105.272,692.391 108.939,688.391 108.5,680.5C 111.167,680.5 113.833,680.5 116.5,680.5C 115.997,692.67 109.663,698.67 97.5,698.5C 88.8667,699.912 83.0333,696.579 80,688.5C 79.4652,684.962 78.6319,681.628 77.5,678.5C 77.2953,670.133 77.6287,661.8 78.5,653.5C 79.2426,649.085 81.5759,645.752 85.5,643.5C 91.9824,641.676 98.6491,641.009 105.5,641.5 Z"/></g>
<g><path style="opacity:1" fill="#cccccd" d="M 85.5,658.5 C 85.5,660.167 85.5,661.833 85.5,663.5C 93.5,663.5 101.5,663.5 109.5,663.5C 101.35,664.493 93.0168,664.826 84.5,664.5C 84.2053,662.265 84.5386,660.265 85.5,658.5 Z"/></g>
<g><path style="opacity:1" fill="#f9f9f9" d="M 102.5,646.5 C 103.263,647.268 104.263,647.768 105.5,648C 108.852,652.576 110.185,657.743 109.5,663.5C 101.5,663.5 93.5,663.5 85.5,663.5C 85.5,661.833 85.5,660.167 85.5,658.5C 84.8988,653.23 86.8988,649.563 91.5,647.5C 95.0991,646.656 98.7657,646.323 102.5,646.5 Z"/></g>
<g><path style="opacity:1" fill="#a7a7a8" d="M 102.5,646.5 C 98.7657,646.323 95.0991,646.656 91.5,647.5C 91.6107,646.883 91.944,646.383 92.5,646C 96.0267,645.192 99.3601,645.359 102.5,646.5 Z"/></g>
<g><path style="opacity:1" fill="#616162" d="M 455.5,651.5 C 455.5,664.833 455.5,678.167 455.5,691.5C 454.67,682.676 454.17,673.676 454,664.5C 453.24,668.819 452.573,673.152 452,677.5C 450.503,668.215 449.336,668.215 448.5,677.5C 448.5,674.5 448.5,671.5 448.5,668.5C 443.821,668.334 439.155,668.501 434.5,669C 430.843,669.837 427.843,671.67 425.5,674.5C 423.843,671.991 424.176,669.825 426.5,668C 425.906,667.536 425.239,667.369 424.5,667.5C 425.514,666.326 426.847,665.66 428.5,665.5C 435.274,664.376 441.941,663.376 448.5,662.5C 450.363,648.26 444.363,643.093 430.5,647C 428.267,649.113 426.933,651.613 426.5,654.5C 424.5,654.5 422.5,654.5 420.5,654.5C 420.5,653.167 420.5,651.833 420.5,650.5C 421.132,645.695 423.799,642.528 428.5,641C 438.826,637.594 447.66,639.761 455,647.5C 455.49,648.793 455.657,650.127 455.5,651.5 Z"/></g>
<g><path style="opacity:1" fill="#c6c6c8" d="M 37.5,658.5 C 37.2271,666.888 37.5604,675.221 38.5,683.5C 37.8826,683.389 37.3826,683.056 37,682.5C 36.533,677.663 36.033,672.83 35.5,668C 35.6143,664.588 36.2809,661.421 37.5,658.5 Z"/></g>
<g><path style="opacity:1" fill="#7f7f80" d="M 664.5,670.5 C 663.883,670.389 663.383,670.056 663,669.5C 662.5,678.827 662.334,688.161 662.5,697.5C 657.305,697.821 652.305,697.487 647.5,696.5C 652.167,696.5 656.833,696.5 661.5,696.5C 661.168,686.81 661.502,677.144 662.5,667.5C 663.919,668.005 664.585,669.005 664.5,670.5 Z"/></g>
<g><path style="opacity:1" fill="#bdbdbf" d="M 115.5,651.5 C 116.268,652.263 116.768,653.263 117,654.5C 117.499,660.157 117.666,665.824 117.5,671.5C 106.833,671.5 96.1667,671.5 85.5,671.5C 85.5,674.167 85.5,676.833 85.5,679.5C 84.5233,676.713 84.19,673.713 84.5,670.5C 95.1667,670.5 105.833,670.5 116.5,670.5C 116.653,664.131 116.32,657.797 115.5,651.5 Z"/></g>
<g><path style="opacity:1" fill="#cacaca" d="M 187.5,651.5 C 188.268,652.263 188.768,653.263 189,654.5C 189.667,664.167 189.667,673.833 189,683.5C 188.722,684.416 188.222,685.082 187.5,685.5C 188.833,674.167 188.833,662.833 187.5,651.5 Z"/></g>
<g><path style="opacity:1" fill="#dbdbdb" d="M 387.5,668.5 C 388.5,668.833 389.167,669.5 389.5,670.5C 388.833,679.5 388.167,688.5 387.5,697.5C 387.5,687.833 387.5,678.167 387.5,668.5 Z"/></g>
<g><path style="opacity:1" fill="#5a5a5b" d="M 386.5,663.5 C 386.833,663.5 387.167,663.5 387.5,663.5C 389.587,662.415 390.92,660.749 391.5,658.5C 396.735,653.021 401.735,647.354 406.5,641.5C 409.388,640.99 411.721,641.656 413.5,643.5C 408.866,648.305 404.366,653.305 400,658.5C 398.086,660.748 396.586,663.248 395.5,666C 402.348,676.021 409.015,686.188 415.5,696.5C 412.894,697.652 410.227,697.818 407.5,697C 401.601,688.014 395.601,679.181 389.5,670.5C 389.167,669.5 388.5,668.833 387.5,668.5C 387.167,668.5 386.833,668.5 386.5,668.5C 385.501,676.748 385.168,685.748 385.5,695.5C 384.5,695.5 383.5,695.5 382.5,695.5C 382.333,669.831 382.5,644.165 383,618.5C 383.414,618.957 383.914,619.291 384.5,619.5C 385.151,634.898 385.818,649.564 386.5,663.5 Z"/></g>
<g><path style="opacity:1" fill="#5c5c5d" d="M 361.5,697.5 C 361.808,695.076 361.474,692.743 360.5,690.5C 359.893,690.624 359.56,690.957 359.5,691.5C 353.3,697.229 345.967,699.062 337.5,697C 329.814,690.429 327.647,682.262 331,672.5C 333.616,667.44 337.783,664.774 343.5,664.5C 348.998,664.048 354.331,663.381 359.5,662.5C 362.658,649.154 357.324,643.654 343.5,646C 339.911,647.674 338.245,650.507 338.5,654.5C 336.5,654.5 334.5,654.5 332.5,654.5C 332.401,651.763 332.735,649.096 333.5,646.5C 337.189,641.084 342.356,639.084 349,640.5C 357.489,638.762 363.489,641.762 367,649.5C 367.5,665.497 367.667,681.497 367.5,697.5C 365.5,697.5 363.5,697.5 361.5,697.5 Z"/></g>
<g><path style="opacity:1" fill="#f9f9f9" d="M 347.5,668.5 C 351.5,668.5 355.5,668.5 359.5,668.5C 359.5,672.167 359.5,675.833 359.5,679.5C 357.363,689.913 351.03,693.746 340.5,691C 336.809,686.865 335.642,682.031 337,676.5C 338.693,671.56 342.193,668.893 347.5,668.5 Z"/></g>
<g><path style="opacity:1" fill="#8c8c8d" d="M 347.5,668.5 C 351.634,667.515 355.968,667.182 360.5,667.5C 360.817,671.702 360.483,675.702 359.5,679.5C 359.5,675.833 359.5,672.167 359.5,668.5C 355.5,668.5 351.5,668.5 347.5,668.5 Z"/></g>
<g><path style="opacity:1" fill="#555557" d="M 163.5,647.5 C 166.734,648.089 168.067,650.089 167.5,653.5C 166.732,654.263 166.232,655.263 166,656.5C 165.333,664.833 165.333,673.167 166,681.5C 166.278,682.416 166.778,683.082 167.5,683.5C 167.5,684.167 167.5,684.833 167.5,685.5C 167.357,687.262 167.691,688.929 168.5,690.5C 167.051,691.172 165.718,691.839 164.5,692.5C 164.5,700.833 164.5,709.167 164.5,717.5C 162.833,717.5 161.167,717.5 159.5,717.5C 159.5,692.5 159.5,667.5 159.5,642.5C 160.833,642.5 162.167,642.5 163.5,642.5C 163.5,644.167 163.5,645.833 163.5,647.5 Z"/></g>
<g><path style="opacity:1" fill="#7c7c7c" d="M 386.5,668.5 C 386.833,668.5 387.167,668.5 387.5,668.5C 387.5,678.167 387.5,687.833 387.5,697.5C 384.941,697.802 382.607,697.468 380.5,696.5C 382.5,696.5 384.5,696.5 386.5,696.5C 386.5,687.167 386.5,677.833 386.5,668.5 Z"/></g>
<g><path style="opacity:1" fill="#59595a" d="M 849.5,617.5 C 849.5,644.167 849.5,670.833 849.5,697.5C 844.833,697.5 840.167,697.5 835.5,697.5C 835.785,695.712 835.452,694.045 834.5,692.5C 833.478,692.855 832.811,693.522 832.5,694.5C 819.145,702.743 810.979,699.076 808,683.5C 807.333,673.5 807.333,663.5 808,653.5C 808.699,644.801 813.366,640.134 822,639.5C 825.96,639.762 829.46,641.096 832.5,643.5C 832.56,644.043 832.893,644.376 833.5,644.5C 834.498,635.525 834.832,626.525 834.5,617.5C 839.5,617.5 844.5,617.5 849.5,617.5 Z"/></g>
<g><path style="opacity:1" fill="#bababc" d="M 832.5,652.5 C 833.268,653.263 833.768,654.263 834,655.5C 834.823,663.677 834.656,671.677 833.5,679.5C 833.716,670.467 833.383,661.467 832.5,652.5 Z"/></g>
<g><path style="opacity:1" fill="#f9f9f9" d="M 832.5,652.5 C 833.383,661.467 833.716,670.467 833.5,679.5C 834.334,685.83 831.667,688.663 825.5,688C 824.283,686.352 823.45,684.519 823,682.5C 822.333,672.833 822.333,663.167 823,653.5C 823.758,651.09 825.425,650.09 828,650.5C 830.008,650.307 831.508,650.974 832.5,652.5 Z"/></g>
<g><path style="opacity:1" fill="#8f8f8f" d="M 263.5,685.5 C 262.566,684.432 262.232,683.099 262.5,681.5C 260.5,681.5 258.5,681.5 256.5,681.5C 256.5,683.833 256.5,686.167 256.5,688.5C 255.527,686.052 255.194,683.385 255.5,680.5C 258.167,680.5 260.833,680.5 263.5,680.5C 263.5,682.167 263.5,683.833 263.5,685.5 Z"/></g>
<g><path style="opacity:1" fill="#b4b4b4" d="M 288.5,675.5 C 289.926,677.679 290.592,680.179 290.5,683C 290.492,684.707 290.158,686.207 289.5,687.5C 289.495,683.466 289.162,679.466 288.5,675.5 Z"/></g>
<g><path style="opacity:1" fill="#bbbbbd" d="M 282.5,680.5 C 283.152,681.449 283.486,682.615 283.5,684C 283.693,686.008 283.026,687.508 281.5,688.5C 281.833,685.833 282.167,683.167 282.5,680.5 Z"/></g>
<g><path style="opacity:1" fill="#616162" d="M 214.5,642.5 C 212.833,642.5 211.167,642.5 209.5,642.5C 209.5,658.5 209.5,674.5 209.5,690.5C 210.552,690.649 211.552,690.483 212.5,690C 212.167,689.667 211.833,689.333 211.5,689C 212.781,687.591 213.781,686.091 214.5,684.5C 214.833,684.5 215.167,684.5 215.5,684.5C 217.168,692.151 221.835,694.651 229.5,692C 232.885,689.471 235.218,686.304 236.5,682.5C 236.414,683.496 236.748,684.329 237.5,685C 235.864,686.434 234.864,688.267 234.5,690.5C 235.105,692.481 236.105,692.815 237.5,691.5C 238.452,693.045 238.785,694.712 238.5,696.5C 240.5,696.5 242.5,696.5 244.5,696.5C 244.5,696.833 244.5,697.167 244.5,697.5C 242.167,697.5 239.833,697.5 237.5,697.5C 237.778,695.654 237.111,694.32 235.5,693.5C 229.684,698.168 223.017,699.668 215.5,698C 211.686,695.377 209.353,691.877 208.5,687.5C 208.5,672.167 208.5,656.833 208.5,641.5C 210.735,641.205 212.735,641.539 214.5,642.5 Z"/></g>
<g><path style="opacity:1" fill="#b0b0b0" d="M 66.5,682.5 C 66.6621,684.527 66.4955,686.527 66,688.5C 65.6174,689.056 65.1174,689.389 64.5,689.5C 64.9267,686.99 65.5933,684.657 66.5,682.5 Z"/></g>
<g><path style="opacity:1" fill="#a4a4a5" d="M 359.5,691.5 C 359.56,690.957 359.893,690.624 360.5,690.5C 361.474,692.743 361.808,695.076 361.5,697.5C 360.833,695.5 360.167,693.5 359.5,691.5 Z"/></g>
<g><path style="opacity:1" fill="#5b5b5c" d="M 455.5,691.5 C 455.5,693.5 455.5,695.5 455.5,697.5C 453.5,697.5 451.5,697.5 449.5,697.5C 449.799,695.396 449.466,693.396 448.5,691.5C 442.111,696.777 434.778,698.611 426.5,697C 417.623,690.928 415.123,682.761 419,672.5C 420.704,670.627 422.537,668.96 424.5,667.5C 425.239,667.369 425.906,667.536 426.5,668C 424.176,669.825 423.843,671.991 425.5,674.5C 422.689,688.854 428.356,694.02 442.5,690C 445.616,686.375 447.616,682.209 448.5,677.5C 449.336,668.215 450.503,668.215 452,677.5C 452.573,673.152 453.24,668.819 454,664.5C 454.17,673.676 454.67,682.676 455.5,691.5 Z"/></g>
<g><path style="opacity:1" fill="#f7f7f7" d="M 448.5,677.5 C 447.616,682.209 445.616,686.375 442.5,690C 428.356,694.02 422.689,688.854 425.5,674.5C 427.843,671.67 430.843,669.837 434.5,669C 439.155,668.501 443.821,668.334 448.5,668.5C 448.5,671.5 448.5,674.5 448.5,677.5 Z"/></g>
<g><path style="opacity:1" fill="#5e5e5f" d="M 167.5,693.5 C 166.791,692.596 165.791,692.263 164.5,692.5C 165.718,691.839 167.051,691.172 168.5,690.5C 167.691,688.929 167.357,687.262 167.5,685.5C 168.508,688.028 170.174,690.195 172.5,692C 179.581,694.118 184.581,691.952 187.5,685.5C 188.222,685.082 188.722,684.416 189,683.5C 189.667,673.833 189.667,664.167 189,654.5C 188.768,653.263 188.268,652.263 187.5,651.5C 186.71,650.206 185.71,649.039 184.5,648C 176.93,644.801 171.263,646.635 167.5,653.5C 168.067,650.089 166.734,648.089 163.5,647.5C 165.027,647.573 166.027,646.906 166.5,645.5C 167.836,643.693 169.503,642.193 171.5,641C 183.861,637.429 192.028,641.596 196,653.5C 197.139,665.631 196.472,677.631 194,689.5C 189.446,697.579 182.613,700.413 173.5,698C 170.771,697.434 168.771,695.934 167.5,693.5 Z"/></g>
<g><path style="opacity:1" fill="#5c5c5d" d="M 497.5,697.5 C 497.808,695.076 497.474,692.743 496.5,690.5C 495.893,690.624 495.56,690.957 495.5,691.5C 489.3,697.229 481.967,699.062 473.5,697C 466.424,690.768 463.924,682.934 466,673.5C 469.107,669.841 472.607,666.841 476.5,664.5C 483.346,664.182 490.013,663.515 496.5,662.5C 498.51,649.009 492.843,643.509 479.5,646C 475.911,647.674 474.245,650.507 474.5,654.5C 472.5,654.5 470.5,654.5 468.5,654.5C 468.833,651.833 469.167,649.167 469.5,646.5C 473.221,641.195 478.388,638.862 485,639.5C 493.389,638.726 499.389,642.059 503,649.5C 503.5,665.497 503.667,681.497 503.5,697.5C 501.5,697.5 499.5,697.5 497.5,697.5 Z"/></g>
<g><path style="opacity:1" fill="#f7f7f7" d="M 481.5,668.5 C 486.5,668.5 491.5,668.5 496.5,668.5C 496.952,674.38 496.118,680.047 494,685.5C 489.515,691.174 483.681,693.007 476.5,691C 471.783,685.189 471.283,679.023 475,672.5C 477.013,670.752 479.18,669.418 481.5,668.5 Z"/></g>
<g><path style="opacity:1" fill="#b5b5b7" d="M 835.5,697.5 C 834.9,696.1 833.9,695.1 832.5,694.5C 832.811,693.522 833.478,692.855 834.5,692.5C 835.452,694.045 835.785,695.712 835.5,697.5 Z"/></g>
<g><path style="opacity:1" fill="#c3c3c5" d="M 37.5,693.5 C 36.8333,701.833 36.1667,710.167 35.5,718.5C 35.1686,709.808 35.502,701.141 36.5,692.5C 37.1067,692.624 37.44,692.957 37.5,693.5 Z"/></g>
<g><path style="opacity:1" fill="#b1b1b1" d="M 495.5,691.5 C 495.56,690.957 495.893,690.624 496.5,690.5C 497.474,692.743 497.808,695.076 497.5,697.5C 496.833,695.5 496.167,693.5 495.5,691.5 Z"/></g>
<g><path style="opacity:1" fill="#959596" d="M 605.5,617.5 C 606.498,643.995 606.831,670.661 606.5,697.5C 601.167,697.5 595.833,697.5 590.5,697.5C 590.768,695.901 590.434,694.568 589.5,693.5C 589.56,692.957 589.893,692.624 590.5,692.5C 591.429,693.689 591.762,695.022 591.5,696.5C 596.167,696.5 600.833,696.5 605.5,696.5C 605.5,670.167 605.5,643.833 605.5,617.5 Z"/></g>
<g><path style="opacity:1" fill="#828282" d="M 796.5,696.5 C 791.36,697.488 786.026,697.821 780.5,697.5C 780.715,695.821 780.048,694.821 778.5,694.5C 778.811,693.522 779.478,692.855 780.5,692.5C 781.429,693.689 781.762,695.022 781.5,696.5C 786.5,696.5 791.5,696.5 796.5,696.5 Z"/></g>
</svg>
